<svg width="110" height="57" viewBox="0 0 110 57" fill="none" xmlns="http://www.w3.org/2000/svg">
<path fill-rule="evenodd" clip-rule="evenodd" d="M109 1H1V56H109V1ZM0 0V57H110V0H0Z" fill="white"/>
<path d="M16.784 22.494C16.9013 22.494 16.9673 22.5087 16.982 22.538C17.0113 22.5527 17.026 22.6187 17.026 22.736C17.026 22.8093 17.0113 23.0073 16.982 23.33C16.8793 24.1513 16.828 25.1707 16.828 26.388C16.828 26.4613 16.784 26.498 16.696 26.498C16.608 26.498 16.564 26.4613 16.564 26.388C16.564 25.2147 16.278 24.3567 15.706 23.814C15.134 23.2713 14.1953 23 12.89 23H6.17999C4.11199 23 3.07799 24.1293 3.07799 26.388C3.07799 26.4613 3.03399 26.498 2.94599 26.498C2.87266 26.498 2.83599 26.4613 2.83599 26.388C2.83599 25.2 2.77733 24.254 2.65999 23.55C2.61599 23.2713 2.59399 23 2.59399 22.736C2.59399 22.6187 2.60866 22.5527 2.63799 22.538C2.66733 22.5087 2.73333 22.494 2.83599 22.494H4.22199L9.72199 9.05199C9.73666 9.00799 9.78066 8.98599 9.85399 8.98599C9.94199 8.98599 9.99333 9.00799 10.008 9.05199L15.596 22.494H16.784ZM4.79399 22.494H14.056L9.39199 11.23L4.79399 22.494Z" fill="white"/>
<path d="M39.2231 22.736C39.2525 22.736 39.2671 22.78 39.2671 22.868C39.2671 22.956 39.2525 23 39.2231 23H36.4291C36.2531 23 36.0991 22.9487 35.9671 22.846C35.8351 22.7287 35.6078 22.4427 35.2851 21.988C34.9771 21.5187 34.3905 20.624 33.5251 19.304C32.8505 18.2627 32.3591 17.544 32.0511 17.148C31.7431 16.7373 31.4205 16.4587 31.0831 16.312C30.7605 16.1507 30.3058 16.07 29.7191 16.07L29.2351 16.092V21.218C29.2351 21.6727 29.2791 22.0027 29.3671 22.208C29.4551 22.4133 29.6238 22.5527 29.8731 22.626C30.1371 22.6993 30.5551 22.736 31.1271 22.736C31.1711 22.736 31.1931 22.78 31.1931 22.868C31.1931 22.956 31.1711 23 31.1271 23C30.6725 23 30.3131 22.9927 30.0491 22.978L28.4871 22.956L26.9911 22.978C26.7271 22.9927 26.3605 23 25.8911 23C25.8618 23 25.8471 22.956 25.8471 22.868C25.8471 22.78 25.8618 22.736 25.8911 22.736C26.4631 22.736 26.8811 22.6993 27.1451 22.626C27.4091 22.5527 27.5851 22.4133 27.6731 22.208C27.7758 21.988 27.8271 21.658 27.8271 21.218V16.114C27.5631 16.0847 27.3798 16.07 27.2771 16.07C26.7051 16.07 26.2505 16.1507 25.9131 16.312C25.5905 16.4587 25.2678 16.73 24.9451 17.126C24.6371 17.522 24.1458 18.2333 23.4711 19.26L23.0311 19.964C22.4885 20.8147 22.0485 21.4893 21.7111 21.988C21.3738 22.472 21.1465 22.7653 21.0291 22.868C20.9118 22.956 20.7651 23 20.5891 23H17.8171C17.7878 23 17.7731 22.956 17.7731 22.868C17.7731 22.78 17.7878 22.736 17.8171 22.736C18.3745 22.7213 18.8658 22.582 19.2911 22.318C19.7311 22.0393 20.1565 21.6507 20.5671 21.152C20.9778 20.6387 21.5205 19.876 22.1951 18.864C22.9725 17.676 23.5151 16.8987 23.8231 16.532C24.1458 16.1507 24.5125 15.9013 24.9231 15.784L22.3491 11.978C21.7331 11.0687 21.1245 10.4307 20.5231 10.064C19.9365 9.69733 19.2325 9.51399 18.4111 9.51399C18.3818 9.51399 18.3671 9.46999 18.3671 9.38199C18.3671 9.29399 18.3818 9.24999 18.4111 9.24999L19.2251 9.27199C19.7531 9.30133 20.2591 9.31599 20.7431 9.31599C21.2271 9.31599 21.7625 9.30133 22.3491 9.27199L23.3611 9.24999C23.4051 9.24999 23.4271 9.29399 23.4271 9.38199C23.4271 9.46999 23.4051 9.51399 23.3611 9.51399C22.9505 9.51399 22.6498 9.55799 22.4591 9.64599C22.2831 9.71933 22.1951 9.85132 22.1951 10.042C22.1951 10.218 22.2685 10.4527 22.4151 10.746C22.5765 11.0393 22.8258 11.4647 23.1631 12.022L25.3851 15.718C25.5318 15.6887 25.7885 15.674 26.1551 15.674L27.3651 15.696C27.4531 15.7107 27.6071 15.718 27.8271 15.718V11.032C27.8271 10.6067 27.7611 10.2913 27.6291 10.086C27.5118 9.86599 27.3065 9.71933 27.0131 9.64599C26.7198 9.55799 26.2871 9.51399 25.7151 9.51399C25.6858 9.51399 25.6711 9.46999 25.6711 9.38199C25.6711 9.29399 25.6858 9.24999 25.7151 9.24999L26.9031 9.27199C27.5778 9.30133 28.1058 9.31599 28.4871 9.31599C28.9125 9.31599 29.4771 9.30133 30.1811 9.27199L31.3471 9.24999C31.3765 9.24999 31.3911 9.29399 31.3911 9.38199C31.3911 9.46999 31.3765 9.51399 31.3471 9.51399C30.7898 9.51399 30.3571 9.55799 30.0491 9.64599C29.7558 9.73399 29.5431 9.88799 29.4111 10.108C29.2938 10.328 29.2351 10.6507 29.2351 11.076V15.718C30.1445 15.6887 30.6871 15.674 30.8631 15.674C31.2298 15.674 31.4865 15.6813 31.6331 15.696L33.8551 12.044C34.1925 11.5013 34.4345 11.076 34.5811 10.768C34.7425 10.46 34.8231 10.218 34.8231 10.042C34.8231 9.85132 34.7351 9.71933 34.5591 9.64599C34.3831 9.55799 34.0898 9.51399 33.6791 9.51399C33.6351 9.51399 33.6131 9.46999 33.6131 9.38199C33.6131 9.29399 33.6351 9.24999 33.6791 9.24999L34.6911 9.27199C35.2778 9.30133 35.8131 9.31599 36.2971 9.31599C36.7811 9.31599 37.2871 9.30133 37.8151 9.27199L38.6291 9.24999C38.6585 9.24999 38.6731 9.29399 38.6731 9.38199C38.6731 9.46999 38.6585 9.51399 38.6291 9.51399C37.8078 9.51399 37.0965 9.69733 36.4951 10.064C35.9085 10.4307 35.3071 11.0687 34.6911 11.978L32.0951 15.784C32.4911 15.8867 32.8358 16.1067 33.1291 16.444C33.4225 16.7813 33.9065 17.456 34.5811 18.468L34.8451 18.864C35.5198 19.876 36.0625 20.6387 36.4731 21.152C36.8838 21.6507 37.3018 22.0393 37.7271 22.318C38.1671 22.582 38.6658 22.7213 39.2231 22.736Z" fill="white"/>
<path d="M49.8758 19.722C49.8758 19.6927 49.9051 19.678 49.9638 19.678C50.0078 19.678 50.0444 19.6853 50.0738 19.7C50.1178 19.7147 50.1398 19.7367 50.1398 19.766C50.0078 20.69 49.9418 21.658 49.9418 22.67C49.9418 22.7873 49.9124 22.8753 49.8538 22.934C49.8098 22.978 49.7218 23 49.5898 23H40.3718C40.3424 23 40.3278 22.956 40.3278 22.868C40.3278 22.78 40.3424 22.736 40.3718 22.736C40.9291 22.736 41.3324 22.6993 41.5818 22.626C41.8458 22.5527 42.0218 22.4133 42.1098 22.208C42.2124 21.988 42.2638 21.658 42.2638 21.218V11.032C42.2638 10.592 42.2124 10.2693 42.1098 10.064C42.0218 9.85866 41.8458 9.71933 41.5818 9.64599C41.3324 9.55799 40.9291 9.51399 40.3718 9.51399C40.3424 9.51399 40.3278 9.46999 40.3278 9.38199C40.3278 9.29399 40.3424 9.24999 40.3718 9.24999H49.2158C49.3478 9.24999 49.4138 9.31599 49.4138 9.44799L49.4578 12.154C49.4578 12.198 49.4211 12.2273 49.3478 12.242C49.2744 12.242 49.2304 12.22 49.2158 12.176C49.1718 11.3987 48.9371 10.7973 48.5118 10.372C48.0864 9.93199 47.5218 9.71199 46.8178 9.71199H45.4758C44.9624 9.71199 44.5811 9.75599 44.3318 9.84399C44.0971 9.91733 43.9284 10.0567 43.8258 10.262C43.7378 10.4527 43.6938 10.746 43.6938 11.142V15.608H46.3778C47.0818 15.608 47.5804 15.4907 47.8738 15.256C48.1818 15.0213 48.3358 14.6253 48.3358 14.068C48.3358 14.0387 48.3798 14.024 48.4678 14.024C48.5558 14.024 48.5998 14.0387 48.5998 14.068L48.5778 15.85C48.5778 16.2753 48.5851 16.598 48.5998 16.818L48.6218 17.874C48.6218 17.9033 48.5778 17.918 48.4898 17.918C48.4018 17.918 48.3578 17.9033 48.3578 17.874C48.3578 17.2287 48.1964 16.7667 47.8738 16.488C47.5658 16.2093 47.0451 16.07 46.3118 16.07H43.6938V21.13C43.6938 21.5407 43.7378 21.8413 43.8258 22.032C43.9138 22.2227 44.0751 22.3547 44.3098 22.428C44.5444 22.5013 44.9111 22.538 45.4098 22.538H47.1698C47.8738 22.538 48.4604 22.2887 48.9298 21.79C49.3991 21.2913 49.7144 20.602 49.8758 19.722Z" fill="white"/>
<path d="M55.4662 21.13C55.4662 21.5993 55.5248 21.944 55.6422 22.164C55.7742 22.3693 56.0162 22.516 56.3682 22.604C56.7348 22.692 57.3068 22.736 58.0842 22.736C58.1282 22.736 58.1502 22.78 58.1502 22.868C58.1502 22.956 58.1282 23 58.0842 23C57.4828 23 57.0135 22.9927 56.6762 22.978L54.7622 22.956L53.2882 22.978C53.0095 22.9927 52.6355 23 52.1662 23C52.1368 23 52.1222 22.956 52.1222 22.868C52.1222 22.78 52.1368 22.736 52.1662 22.736C52.7235 22.736 53.1268 22.6993 53.3762 22.626C53.6402 22.5527 53.8162 22.4133 53.9042 22.208C53.9922 21.988 54.0362 21.658 54.0362 21.218V11.032C54.0362 10.592 53.9922 10.2693 53.9042 10.064C53.8162 9.85866 53.6402 9.71933 53.3762 9.64599C53.1268 9.55799 52.7235 9.51399 52.1662 9.51399C52.1368 9.51399 52.1222 9.46999 52.1222 9.38199C52.1222 9.29399 52.1368 9.24999 52.1662 9.24999L53.2662 9.27199C53.8822 9.30133 54.3735 9.31599 54.7402 9.31599C55.1068 9.31599 55.5175 9.29399 55.9722 9.24999C56.1482 9.24999 56.4268 9.24266 56.8082 9.22799C57.1895 9.19866 57.5195 9.18399 57.7982 9.18399C59.1475 9.18399 60.2255 9.48466 61.0322 10.086C61.8535 10.6873 62.2642 11.604 62.2642 12.836C62.2642 13.804 62.0222 14.618 61.5382 15.278C61.0688 15.938 60.4602 16.4293 59.7122 16.752C58.9642 17.0747 58.1942 17.236 57.4022 17.236C56.9768 17.236 56.6248 17.1993 56.3462 17.126C56.3022 17.126 56.2802 17.0893 56.2802 17.016C56.2802 16.972 56.2875 16.928 56.3022 16.884C56.3315 16.84 56.3608 16.8253 56.3902 16.84C56.6248 16.8987 56.8888 16.928 57.1822 16.928C58.1502 16.928 58.9642 16.6127 59.6242 15.982C60.2988 15.3513 60.6362 14.442 60.6362 13.254C60.6362 12.0953 60.3208 11.186 59.6902 10.526C59.0595 9.85133 58.2528 9.51399 57.2702 9.51399C56.7422 9.51399 56.3608 9.54333 56.1262 9.60199C55.8915 9.66066 55.7228 9.79999 55.6202 10.02C55.5175 10.2253 55.4662 10.5773 55.4662 11.076V21.13Z" fill="white"/>
<path d="M73.6375 19.722C73.6375 19.6927 73.6668 19.678 73.7255 19.678C73.7695 19.678 73.8062 19.6853 73.8355 19.7C73.8795 19.7147 73.9015 19.7367 73.9015 19.766C73.7695 20.69 73.7035 21.658 73.7035 22.67C73.7035 22.7873 73.6742 22.8753 73.6155 22.934C73.5715 22.978 73.4835 23 73.3515 23H64.1335C64.1042 23 64.0895 22.956 64.0895 22.868C64.0895 22.78 64.1042 22.736 64.1335 22.736C64.6908 22.736 65.0942 22.6993 65.3435 22.626C65.6075 22.5527 65.7835 22.4133 65.8715 22.208C65.9742 21.988 66.0255 21.658 66.0255 21.218V11.032C66.0255 10.592 65.9742 10.2693 65.8715 10.064C65.7835 9.85866 65.6075 9.71933 65.3435 9.64599C65.0942 9.55799 64.6908 9.51399 64.1335 9.51399C64.1042 9.51399 64.0895 9.46999 64.0895 9.38199C64.0895 9.29399 64.1042 9.24999 64.1335 9.24999H72.9775C73.1095 9.24999 73.1755 9.31599 73.1755 9.44799L73.2195 12.154C73.2195 12.198 73.1828 12.2273 73.1095 12.242C73.0362 12.242 72.9922 12.22 72.9775 12.176C72.9335 11.3987 72.6988 10.7973 72.2735 10.372C71.8482 9.93199 71.2835 9.71199 70.5795 9.71199H69.2375C68.7242 9.71199 68.3428 9.75599 68.0935 9.84399C67.8588 9.91733 67.6902 10.0567 67.5875 10.262C67.4995 10.4527 67.4555 10.746 67.4555 11.142V15.608H70.1395C70.8435 15.608 71.3422 15.4907 71.6355 15.256C71.9435 15.0213 72.0975 14.6253 72.0975 14.068C72.0975 14.0387 72.1415 14.024 72.2295 14.024C72.3175 14.024 72.3615 14.0387 72.3615 14.068L72.3395 15.85C72.3395 16.2753 72.3468 16.598 72.3615 16.818L72.3835 17.874C72.3835 17.9033 72.3395 17.918 72.2515 17.918C72.1635 17.918 72.1195 17.9033 72.1195 17.874C72.1195 17.2287 71.9582 16.7667 71.6355 16.488C71.3275 16.2093 70.8068 16.07 70.0735 16.07H67.4555V21.13C67.4555 21.5407 67.4995 21.8413 67.5875 22.032C67.6755 22.2227 67.8368 22.3547 68.0715 22.428C68.3062 22.5013 68.6728 22.538 69.1715 22.538H70.9315C71.6355 22.538 72.2222 22.2887 72.6915 21.79C73.1608 21.2913 73.4762 20.602 73.6375 19.722Z" fill="white"/>
<path d="M90.3819 22.736C90.4406 22.736 90.4699 22.78 90.4699 22.868C90.4699 22.956 90.4406 23 90.3819 23C90.1032 23 89.6706 22.9853 89.0839 22.956C88.4972 22.9267 88.0719 22.912 87.8079 22.912C87.4852 22.912 87.0746 22.9267 86.5759 22.956C86.1066 22.9853 85.7472 23 85.4979 23C85.4392 23 85.4099 22.956 85.4099 22.868C85.4099 22.78 85.4392 22.736 85.4979 22.736C86.0406 22.736 86.4366 22.6847 86.6859 22.582C86.9352 22.4793 87.0599 22.3033 87.0599 22.054C87.0599 21.8487 86.9646 21.5333 86.7739 21.108L82.0439 11.076L78.1939 20.206C77.9886 20.7047 77.8859 21.1153 77.8859 21.438C77.8859 22.3033 78.6046 22.736 80.0419 22.736C80.1152 22.736 80.1519 22.78 80.1519 22.868C80.1519 22.956 80.1152 23 80.0419 23C79.7779 23 79.3966 22.9853 78.8979 22.956C78.3406 22.9267 77.8566 22.912 77.4459 22.912C77.0646 22.912 76.6246 22.9267 76.1259 22.956C75.6859 22.9853 75.3192 23 75.0259 23C74.9526 23 74.9159 22.956 74.9159 22.868C74.9159 22.78 74.9526 22.736 75.0259 22.736C75.4366 22.736 75.7812 22.6627 76.0599 22.516C76.3532 22.3547 76.6246 22.0833 76.8739 21.702C77.1379 21.306 77.4239 20.7413 77.7319 20.008L82.3739 9.05199C82.4032 9.00799 82.4546 8.98599 82.5279 8.98599C82.6012 8.98599 82.6452 9.00799 82.6599 9.05199L87.8519 19.986C88.3506 21.0713 88.7759 21.8047 89.1279 22.186C89.4799 22.5527 89.8979 22.736 90.3819 22.736Z" fill="white"/>
<path d="M98.2454 23.264C96.8814 23.264 95.664 22.9487 94.5934 22.318C93.5374 21.6727 92.716 20.8073 92.1293 19.722C91.5573 18.622 91.2714 17.4267 91.2714 16.136C91.2714 14.6253 91.6527 13.3347 92.4154 12.264C93.178 11.1787 94.1534 10.3647 95.3414 9.82199C96.544 9.27933 97.7687 9.00799 99.0154 9.00799C100.409 9.00799 101.633 9.33799 102.689 9.99799C103.745 10.6433 104.552 11.5013 105.109 12.572C105.681 13.6427 105.967 14.7793 105.967 15.982C105.967 17.3167 105.615 18.5413 104.911 19.656C104.207 20.7707 103.261 21.6507 102.073 22.296C100.9 22.9413 99.624 23.264 98.2454 23.264ZM99.0154 22.802C100.013 22.802 100.907 22.56 101.699 22.076C102.506 21.592 103.137 20.8807 103.591 19.942C104.061 19.0033 104.295 17.8887 104.295 16.598C104.295 15.2193 104.039 13.9947 103.525 12.924C103.012 11.8533 102.286 11.0173 101.347 10.416C100.423 9.81466 99.338 9.51399 98.0914 9.51399C96.478 9.51399 95.2167 10.0347 94.3074 11.076C93.398 12.1173 92.9434 13.5473 92.9434 15.366C92.9434 16.7447 93.2 18.006 93.7133 19.15C94.2267 20.2793 94.9454 21.174 95.8694 21.834C96.7934 22.4793 97.842 22.802 99.0154 22.802Z" fill="white"/>
<path d="M33.825 46.82C33.855 46.82 33.87 46.85 33.87 46.91C33.87 46.97 33.855 47 33.825 47H32.175C32.125 47 32.09 46.995 32.07 46.985C32.05 46.965 32.01 46.905 31.95 46.805C31.81 46.555 31.535 46.14 31.125 45.56C30.765 45.06 30.51 44.725 30.36 44.555C30.22 44.375 30.065 44.26 29.895 44.21C29.735 44.15 29.495 44.125 29.175 44.135V45.785C29.175 46.085 29.2 46.31 29.25 46.46C29.3 46.6 29.385 46.695 29.505 46.745C29.635 46.795 29.84 46.82 30.12 46.82C30.15 46.82 30.165 46.85 30.165 46.91C30.165 46.97 30.15 47 30.12 47C29.87 47 29.675 46.995 29.535 46.985L28.77 46.97L27.975 46.985C27.835 46.995 27.635 47 27.375 47C27.345 47 27.33 46.97 27.33 46.91C27.33 46.85 27.345 46.82 27.375 46.82C27.655 46.82 27.86 46.795 27.99 46.745C28.13 46.695 28.22 46.6 28.26 46.46C28.31 46.31 28.335 46.085 28.335 45.785V38.03C28.335 37.67 28.3 37.41 28.23 37.25C28.16 37.09 28.035 37.01 27.855 37.01C27.705 37.01 27.475 37.08 27.165 37.22H27.135C27.105 37.22 27.08 37.195 27.06 37.145C27.04 37.095 27.05 37.065 27.09 37.055L28.965 36.14L29.04 36.125C29.07 36.125 29.1 36.14 29.13 36.17C29.16 36.19 29.175 36.215 29.175 36.245V43.88C29.565 43.85 29.875 43.835 30.105 43.835C30.355 43.835 30.605 43.595 30.855 43.115C31.145 42.535 31.36 42.125 31.5 41.885C31.64 41.645 31.8 41.45 31.98 41.3C32.16 41.15 32.375 41.075 32.625 41.075C32.835 41.075 33 41.125 33.12 41.225C33.24 41.325 33.3 41.45 33.3 41.6C33.3 41.76 33.245 41.895 33.135 42.005C33.035 42.115 32.895 42.17 32.715 42.17C32.605 42.17 32.485 42.135 32.355 42.065C32.235 41.995 32.14 41.96 32.07 41.96C31.87 41.96 31.54 42.37 31.08 43.19C30.91 43.51 30.75 43.74 30.6 43.88C30.79 43.92 30.955 44.01 31.095 44.15C31.235 44.28 31.445 44.535 31.725 44.915L31.995 45.26L32.37 45.77C32.65 46.16 32.88 46.43 33.06 46.58C33.24 46.73 33.495 46.81 33.825 46.82Z" fill="white"/>
<path d="M40.8954 46.13C40.9354 46.13 40.9604 46.155 40.9704 46.205C40.9904 46.245 40.9804 46.27 40.9404 46.28L39.2004 47.12C39.1804 47.13 39.1554 47.135 39.1254 47.135C39.0354 47.135 38.9454 47.02 38.8554 46.79C38.7754 46.55 38.7304 46.25 38.7204 45.89C38.3504 46.27 37.9754 46.575 37.5954 46.805C37.2154 47.035 36.8004 47.15 36.3504 47.15C35.7404 47.15 35.2254 46.925 34.8054 46.475C34.3954 46.025 34.1904 45.395 34.1904 44.585C34.1904 43.865 34.3604 43.235 34.7004 42.695C35.0404 42.155 35.4654 41.74 35.9754 41.45C36.4954 41.16 37.0154 41.015 37.5354 41.015C38.0954 41.015 38.5804 41.165 38.9904 41.465C39.1704 41.365 39.3104 41.235 39.4104 41.075C39.4204 41.055 39.4454 41.055 39.4854 41.075C39.5254 41.085 39.5454 41.1 39.5454 41.12V45.395C39.5454 45.735 39.5854 45.98 39.6654 46.13C39.7454 46.27 39.8804 46.34 40.0704 46.34C40.2404 46.34 40.5054 46.27 40.8654 46.13H40.8954ZM36.8604 46.655C37.1904 46.655 37.5054 46.565 37.8054 46.385C38.1154 46.195 38.4204 45.95 38.7204 45.65V42.59C38.7204 42.22 38.5604 41.915 38.2404 41.675C37.9204 41.435 37.5604 41.315 37.1604 41.315C36.5704 41.315 36.0904 41.58 35.7204 42.11C35.3604 42.63 35.1804 43.31 35.1804 44.15C35.1804 44.9 35.3304 45.505 35.6304 45.965C35.9404 46.425 36.3504 46.655 36.8604 46.655Z" fill="white"/>
<path d="M47.5139 47.195C47.0339 47.195 46.6039 46.965 46.2239 46.505V49.91C46.2239 50.21 46.2539 50.43 46.3139 50.57C46.3839 50.71 46.5139 50.805 46.7039 50.855C46.8939 50.915 47.1939 50.945 47.6039 50.945C47.6239 50.945 47.6339 50.975 47.6339 51.035C47.6339 51.095 47.6239 51.125 47.6039 51.125C47.2739 51.125 47.0139 51.12 46.8239 51.11L45.8189 51.095L44.6939 51.11C44.5039 51.12 44.2389 51.125 43.8989 51.125C43.8689 51.125 43.8539 51.095 43.8539 51.035C43.8539 50.975 43.8689 50.945 43.8989 50.945C44.3289 50.945 44.6439 50.915 44.8439 50.855C45.0439 50.805 45.1789 50.71 45.2489 50.57C45.3289 50.43 45.3689 50.21 45.3689 49.91V46.13C44.6889 46.84 44.0439 47.195 43.4339 47.195C43.0839 47.195 42.7639 47.08 42.4739 46.85C42.1839 46.61 41.9539 46.275 41.7839 45.845C41.6239 45.405 41.5439 44.895 41.5439 44.315C41.5439 43.585 41.6789 42.97 41.9489 42.47C42.2189 41.97 42.5489 41.605 42.9389 41.375C43.3289 41.135 43.7039 41.015 44.0639 41.015C44.5339 41.015 44.9689 41.245 45.3689 41.705V38.03C45.3689 37.67 45.3339 37.41 45.2639 37.25C45.1939 37.09 45.0739 37.01 44.9039 37.01C44.7539 37.01 44.5239 37.08 44.2139 37.22H44.1839C44.1439 37.22 44.1139 37.2 44.0939 37.16C44.0839 37.11 44.0939 37.075 44.1239 37.055L46.0289 36.14L46.0889 36.125C46.1189 36.125 46.1489 36.14 46.1789 36.17C46.2089 36.19 46.2239 36.215 46.2239 36.245V42.08C46.8939 41.37 47.5339 41.015 48.1439 41.015C48.4939 41.015 48.8139 41.135 49.1039 41.375C49.3939 41.605 49.6189 41.94 49.7789 42.38C49.9489 42.81 50.0339 43.315 50.0339 43.895C50.0339 44.625 49.8989 45.24 49.6289 45.74C49.3589 46.24 49.0289 46.61 48.6389 46.85C48.2489 47.08 47.8739 47.195 47.5139 47.195ZM43.9439 46.7C44.4139 46.7 44.8889 46.42 45.3689 45.86V42.425C45.1489 42.085 44.9039 41.815 44.6339 41.615C44.3639 41.415 44.0939 41.315 43.8239 41.315C43.4039 41.315 43.0789 41.54 42.8489 41.99C42.6189 42.43 42.5039 43.04 42.5039 43.82C42.5039 44.72 42.6339 45.425 42.8939 45.935C43.1639 46.445 43.5139 46.7 43.9439 46.7ZM47.6189 41.51C47.1689 41.51 46.7039 41.78 46.2239 42.32V45.815C46.4439 46.145 46.6839 46.41 46.9439 46.61C47.2139 46.8 47.4839 46.895 47.7539 46.895C48.1739 46.895 48.4989 46.675 48.7289 46.235C48.9689 45.785 49.0889 45.17 49.0889 44.39C49.0889 43.5 48.9489 42.8 48.6689 42.29C48.3989 41.77 48.0489 41.51 47.6189 41.51Z" fill="white"/>
<path d="M56.0293 46.16C56.0593 46.16 56.0843 46.18 56.1043 46.22C56.1343 46.25 56.1393 46.28 56.1193 46.31C55.4393 46.89 54.7093 47.18 53.9293 47.18C53.3393 47.18 52.8293 47.045 52.3993 46.775C51.9693 46.505 51.6443 46.155 51.4243 45.725C51.2143 45.285 51.1093 44.81 51.1093 44.3C51.1093 43.7 51.2493 43.155 51.5293 42.665C51.8193 42.175 52.2093 41.79 52.6993 41.51C53.1893 41.22 53.7343 41.075 54.3343 41.075C54.8743 41.075 55.2943 41.21 55.5943 41.48C55.8943 41.74 56.0443 42.1 56.0443 42.56C56.0443 42.68 56.0293 42.77 55.9993 42.83C55.9793 42.88 55.9343 42.905 55.8643 42.905L52.1743 42.935C52.1243 43.205 52.0993 43.465 52.0993 43.715C52.0993 44.585 52.3093 45.295 52.7293 45.845C53.1493 46.385 53.7293 46.655 54.4693 46.655C55.0393 46.655 55.5543 46.49 56.0143 46.16H56.0293ZM53.8243 41.375C53.4143 41.375 53.0693 41.495 52.7893 41.735C52.5193 41.965 52.3293 42.295 52.2193 42.725L55.0093 42.665C55.0093 42.255 54.8993 41.94 54.6793 41.72C54.4693 41.49 54.1843 41.375 53.8243 41.375Z" fill="white"/>
<path d="M57.1724 44.525C57.1524 44.535 57.1324 44.5 57.1124 44.42C57.1024 44.34 57.0974 44.26 57.0974 44.18C57.0974 43.99 57.1124 43.895 57.1424 43.895L61.0574 43.19C61.0774 43.18 61.0924 43.21 61.1024 43.28C61.1224 43.34 61.1324 43.41 61.1324 43.49C61.1324 43.69 61.1074 43.8 61.0574 43.82L57.1724 44.525Z" fill="white"/>
<path d="M65.141 41.195C65.841 41.195 66.411 41.34 66.851 41.63C67.291 41.91 67.606 42.27 67.796 42.71C67.986 43.15 68.081 43.605 68.081 44.075C68.081 44.705 67.936 45.255 67.646 45.725C67.356 46.195 66.966 46.56 66.476 46.82C65.996 47.07 65.466 47.195 64.886 47.195C64.396 47.195 63.941 47.07 63.521 46.82C63.101 46.56 62.761 46.16 62.501 45.62C62.251 45.07 62.126 44.385 62.126 43.565C62.126 42.345 62.256 41.345 62.516 40.565C62.786 39.775 63.156 39.155 63.626 38.705C64.106 38.255 64.711 37.89 65.441 37.61L65.726 37.49C66.206 37.31 66.586 37.13 66.866 36.95C67.146 36.77 67.371 36.495 67.541 36.125C67.551 36.085 67.581 36.075 67.631 36.095C67.691 36.105 67.711 36.125 67.691 36.155C67.601 36.685 67.456 37.095 67.256 37.385C67.066 37.665 66.846 37.875 66.596 38.015C66.346 38.145 65.951 38.315 65.411 38.525C64.511 38.885 63.811 39.405 63.311 40.085C62.821 40.755 62.521 41.735 62.411 43.025C62.701 42.305 63.116 41.82 63.656 41.57C64.206 41.32 64.701 41.195 65.141 41.195ZM65.336 46.91C65.876 46.91 66.301 46.715 66.611 46.325C66.931 45.925 67.091 45.315 67.091 44.495C67.091 43.905 67.001 43.38 66.821 42.92C66.641 42.46 66.386 42.1 66.056 41.84C65.736 41.58 65.371 41.45 64.961 41.45C64.401 41.45 63.966 41.695 63.656 42.185C63.346 42.675 63.191 43.255 63.191 43.925C63.191 44.785 63.381 45.5 63.761 46.07C64.141 46.63 64.666 46.91 65.336 46.91Z" fill="white"/>
<path d="M75.8612 46.13C75.9012 46.13 75.9262 46.155 75.9362 46.205C75.9562 46.245 75.9462 46.27 75.9062 46.28L74.1662 47.12C74.1462 47.13 74.1212 47.135 74.0912 47.135C74.0012 47.135 73.9112 47.02 73.8212 46.79C73.7412 46.55 73.6962 46.25 73.6862 45.89C73.3162 46.27 72.9412 46.575 72.5612 46.805C72.1812 47.035 71.7662 47.15 71.3162 47.15C70.7062 47.15 70.1912 46.925 69.7712 46.475C69.3612 46.025 69.1562 45.395 69.1562 44.585C69.1562 43.865 69.3262 43.235 69.6662 42.695C70.0062 42.155 70.4312 41.74 70.9412 41.45C71.4612 41.16 71.9812 41.015 72.5012 41.015C73.0612 41.015 73.5462 41.165 73.9562 41.465C74.1362 41.365 74.2762 41.235 74.3762 41.075C74.3862 41.055 74.4112 41.055 74.4512 41.075C74.4912 41.085 74.5112 41.1 74.5112 41.12V45.395C74.5112 45.735 74.5512 45.98 74.6312 46.13C74.7112 46.27 74.8462 46.34 75.0362 46.34C75.2062 46.34 75.4712 46.27 75.8312 46.13H75.8612ZM71.8262 46.655C72.1562 46.655 72.4712 46.565 72.7712 46.385C73.0812 46.195 73.3862 45.95 73.6862 45.65V42.59C73.6862 42.22 73.5262 41.915 73.2062 41.675C72.8862 41.435 72.5262 41.315 72.1262 41.315C71.5362 41.315 71.0562 41.58 70.6862 42.11C70.3262 42.63 70.1462 43.31 70.1462 44.15C70.1462 44.9 70.2962 45.505 70.5962 45.965C70.9062 46.425 71.3162 46.655 71.8262 46.655Z" fill="white"/>
<path d="M80.7547 41.015C81.1647 41.015 81.5447 41.125 81.8947 41.345C82.2447 41.565 82.5247 41.885 82.7347 42.305C82.9447 42.725 83.0497 43.215 83.0497 43.775C83.0497 44.525 82.8797 45.16 82.5397 45.68C82.1997 46.19 81.7797 46.57 81.2797 46.82C80.7897 47.07 80.3047 47.195 79.8247 47.195C79.5147 47.195 79.2347 47.165 78.9847 47.105C78.7447 47.045 78.4947 46.945 78.2347 46.805V49.91C78.2347 50.21 78.2697 50.43 78.3397 50.57C78.4197 50.71 78.5647 50.805 78.7747 50.855C78.9847 50.915 79.3047 50.945 79.7347 50.945C79.7547 50.945 79.7647 50.975 79.7647 51.035C79.7647 51.095 79.7547 51.125 79.7347 51.125C79.3947 51.125 79.1247 51.12 78.9247 51.11L77.8297 51.095L77.0047 51.11C76.8647 51.12 76.6797 51.125 76.4497 51.125C76.4197 51.125 76.4047 51.095 76.4047 51.035C76.4047 50.975 76.4197 50.945 76.4497 50.945C76.7197 50.945 76.9197 50.915 77.0497 50.855C77.1797 50.805 77.2697 50.71 77.3197 50.57C77.3697 50.43 77.3947 50.21 77.3947 49.91V42.86C77.3947 42.5 77.3547 42.245 77.2747 42.095C77.1947 41.935 77.0547 41.855 76.8547 41.855C76.6347 41.855 76.3697 41.925 76.0597 42.065L76.0297 42.08C75.9897 42.08 75.9647 42.055 75.9547 42.005C75.9347 41.955 75.9397 41.92 75.9697 41.9L77.6347 41.105C77.6547 41.095 77.6897 41.09 77.7397 41.09C77.8797 41.09 77.9947 41.195 78.0847 41.405C78.1747 41.615 78.2247 41.915 78.2347 42.305C79.0847 41.445 79.9247 41.015 80.7547 41.015ZM80.2747 46.88C80.8047 46.88 81.2397 46.65 81.5797 46.19C81.9197 45.72 82.0897 45.07 82.0897 44.24C82.0897 43.4 81.9047 42.75 81.5347 42.29C81.1647 41.82 80.6947 41.585 80.1247 41.585C79.7747 41.585 79.4497 41.67 79.1497 41.84C78.8497 42.01 78.5447 42.25 78.2347 42.56V45.935C78.5047 46.245 78.7997 46.48 79.1197 46.64C79.4397 46.8 79.8247 46.88 80.2747 46.88Z" fill="white"/>
<path fill-rule="evenodd" clip-rule="evenodd" d="M107 31L3 31L3 30L107 30L107 31Z" fill="white"/>
</svg>
