<svg width="40" height="40" viewBox="0 0 40 40" fill="none" xmlns="http://www.w3.org/2000/svg">
<path d="M20 36.6668C24.4203 36.6668 28.6595 34.9109 31.7851 31.7853C34.9107 28.6597 36.6666 24.4204 36.6666 20.0002C36.6666 17.8115 36.2355 15.6442 35.398 13.6221C34.5604 11.6 33.3327 9.76269 31.7851 8.21505C30.2374 6.66741 28.4001 5.43975 26.378 4.60217C24.3559 3.76459 22.1887 3.3335 20 3.3335C17.8113 3.3335 15.644 3.76459 13.6219 4.60217C11.5998 5.43975 9.76251 6.66741 8.21487 8.21505C5.08926 11.3407 3.33331 15.5799 3.33331 20.0002C3.33331 24.4204 5.08926 28.6597 8.21487 31.7853C9.76251 33.3329 11.5998 34.5606 13.6219 35.3982C15.644 36.2357 17.8113 36.6668 20 36.6668ZM20 33.3335C16.4638 33.3335 13.0724 31.9287 10.5719 29.4283C8.0714 26.9278 6.66665 23.5364 6.66665 20.0002C6.66665 16.4639 8.0714 13.0726 10.5719 10.5721C13.0724 8.07159 16.4638 6.66683 20 6.66683C23.5362 6.66683 26.9276 8.07159 29.4281 10.5721C31.9286 13.0726 33.3333 16.4639 33.3333 20.0002C33.3333 23.5364 31.9286 26.9278 29.4281 29.4283C26.9276 31.9287 23.5362 33.3335 20 33.3335ZM28.3333 23.3335L20 15.0002L11.6666 23.3335H28.3333Z" fill="#FF7400"/>
</svg>
